<svg width="1285" height="346" viewBox="0 0 1285 346" fill="none" xmlns="http://www.w3.org/2000/svg">
<path d="M60 45.1357L60 334.421" stroke="#2A265F" stroke-width="20" stroke-linecap="round"/>
<path d="M778 44.1357L778 333.421" stroke="#2A265F" stroke-width="20" stroke-linecap="round"/>
<path d="M501.818 45.1357L501.818 334.421" stroke="#2A265F" stroke-width="20" stroke-linecap="round"/>
<path d="M1219.82 44.1357L1219.82 333.421" stroke="#2A265F" stroke-width="20" stroke-linecap="round"/>
<path d="M943.636 45.1357L943.636 334.421" stroke="#2A265F" stroke-width="20" stroke-linecap="round"/>
<path d="M170.455 86.2142L170.455 335" stroke="#003737" stroke-width="20" stroke-linecap="round"/>
<path d="M888.455 85.2142L888.455 334" stroke="#003737" stroke-width="20" stroke-linecap="round"/>
<path d="M612.273 86.2142L612.273 335" stroke="#003737" stroke-width="20" stroke-linecap="round"/>
<path d="M1054.09 86.2142L1054.09 335" stroke="#003737" stroke-width="20" stroke-linecap="round"/>
<path d="M280.909 11L280.909 335" stroke="#8F4700" stroke-width="20" stroke-linecap="round"/>
<path d="M998.909 10L998.909 334" stroke="#8F4700" stroke-width="20" stroke-linecap="round"/>
<path d="M722.727 11L722.727 335" stroke="#8F4700" stroke-width="20" stroke-linecap="round"/>
<path d="M1164.55 11L1164.55 335" stroke="#8F4700" stroke-width="20" stroke-linecap="round"/>
<path d="M391.364 160.85L391.364 335" stroke="#C58C00" stroke-width="20" stroke-linecap="round"/>
<path d="M1109.36 159.85L1109.36 334" stroke="#C58C00" stroke-width="20" stroke-linecap="round"/>
<path d="M833.182 160.85L833.182 335" stroke="#C58C00" stroke-width="20" stroke-linecap="round"/>
<path d="M1275 160.85L1275 335" stroke="#C58C00" stroke-width="20" stroke-linecap="round"/>
<path d="M10 87L10 335.786" stroke="#003737" stroke-width="20" stroke-linecap="round"/>
<path d="M226 45.1357L226 334.421" stroke="#2A265F" stroke-width="20" stroke-linecap="round"/>
<path d="M667.818 45.1357L667.818 334.421" stroke="#2A265F" stroke-width="20" stroke-linecap="round"/>
<path d="M336.455 86.2142L336.455 335" stroke="#003737" stroke-width="20" stroke-linecap="round"/>
<path d="M446.909 11L446.909 335" stroke="#8F4700" stroke-width="20" stroke-linecap="round"/>
<path d="M557.364 160.85L557.364 335" stroke="#C58C00" stroke-width="20" stroke-linecap="round"/>
<path d="M112 161L112 335.15" stroke="#C58C00" stroke-width="20" stroke-linecap="round"/>
</svg>
